<svg xmlns="http://www.w3.org/2000/svg" width="22" height="22" viewBox="0 0 22 22">
  <path id="Fill-85" d="M755.786,159.671l-3.553,1.113-1.112,3.553,3.552-1.113Zm1.778-1.777a.8.8,0,0,1,.2.8l-1.69,5.4a.794.794,0,0,1-.522.522l-5.4,1.691a.795.795,0,0,1-1-1l1.694-5.4a.8.8,0,0,1,.518-.52l5.4-1.7a.793.793,0,0,1,.8.2Zm-4.111-5.3A9.407,9.407,0,1,0,762.861,162a9.407,9.407,0,0,0-9.408-9.407Zm0-1.593a11,11,0,1,1-11,11,11,11,0,0,1,11-11Z" transform="translate(-742.454 -151.003)" fill="#696972" fill-rule="evenodd"/>
</svg>
