<svg xmlns="http://www.w3.org/2000/svg" width="22" height="22.063" viewBox="0 0 22 22.063">
  <path id="Fill-5" d="M523.6,231.837a1.25,1.25,0,1,0,1.249,1.251v0a1.251,1.251,0,0,0-1.249-1.249Zm0-1.6a2.848,2.848,0,1,1-2.842,2.853v-.005a2.85,2.85,0,0,1,2.842-2.848Zm-3.146,8.176a.8.8,0,0,1,.144,1.12h0l-3.123,4.028a.8.8,0,0,1-1.121.143l0,0-3.006-2.359-2.7,3.505a.8.8,0,1,1-1.267-.97l3.19-4.146a.8.8,0,0,1,.533-.306.789.789,0,0,1,.594.165l3.005,2.361,2.63-3.4a.8.8,0,0,1,1.115-.148l.006.005Zm-2.254-7.279a.8.8,0,0,1,0,1.6h-7.749c-2.673,0-4.4,1.837-4.4,4.683v8.613c0,2.877,1.686,4.673,4.4,4.673h9.165c2.673,0,4.4-1.834,4.4-4.673v-7.5a.8.8,0,0,1,1.6,0v7.5c0,3.751-2.411,6.272-6,6.272h-9.165c-3.588,0-6-2.52-6-6.272v-8.613c0-3.757,2.411-6.281,6-6.281Z" transform="translate(-504.454 -230.238)" fill="#696972" fill-rule="evenodd"/>
</svg>
