<svg xmlns="http://www.w3.org/2000/svg" width="22" height="23.157" viewBox="0 0 22 23.157">
  <path id="Fill-316" d="M155.684,503.74V500.2a1.643,1.643,0,0,1,1.647-1.64h3.329a1.659,1.659,0,0,1,1.166.479,1.628,1.628,0,0,1,.483,1.158v3.541a1.407,1.407,0,0,0,.412,1,1.425,1.425,0,0,0,1.009.417H166A4.006,4.006,0,0,0,168.828,504,3.949,3.949,0,0,0,170,501.2V491.112a2.86,2.86,0,0,0-1.042-2.2l-7.719-6.126a3.59,3.59,0,0,0-4.572.082l-7.547,6.042a2.863,2.863,0,0,0-1.12,2.2v10.074a3.988,3.988,0,0,0,4,3.975h2.22a1.425,1.425,0,0,0,1.431-1.41Z" transform="translate(-148.001 -482.004)" fill="#fff" fill-rule="evenodd"/>
</svg>
