<svg xmlns="http://www.w3.org/2000/svg" width="17.518" height="17.45" viewBox="0 0 17.518 17.45">
  <g id="Group" transform="translate(0)">
    <g id="Clipped" transform="translate(0)">
      <path id="Shape" d="M7.86,1.172A6.554,6.554,0,0,0,1.21,7.611,6.554,6.554,0,0,0,7.86,14.05a6.554,6.554,0,0,0,6.649-6.439A6.554,6.554,0,0,0,7.86,1.172Zm0,14.05A7.748,7.748,0,0,1,0,7.611,7.747,7.747,0,0,1,7.86,0a7.746,7.746,0,0,1,7.86,7.611A7.747,7.747,0,0,1,7.86,15.222Z" transform="translate(0)" fill="#fff" fill-rule="evenodd"/>
    </g>
    <g id="Clipped-2" data-name="Clipped" transform="translate(12.427 12.502)">
      <path id="Path" d="M4.331,4.948a.771.771,0,0,1-.537-.216L.223,1.265a.727.727,0,0,1,0-1.047A.775.775,0,0,1,1.3.216L4.868,3.684a.726.726,0,0,1,0,1.046A.763.763,0,0,1,4.331,4.948Z" transform="translate(0 0)" fill="#fff" fill-rule="evenodd"/>
    </g>
  </g>
</svg>
