<svg id="Star-Bold" xmlns="http://www.w3.org/2000/svg" width="16.844" height="16" viewBox="0 0 16.844 16">
  <path id="Fill-374" d="M13.4,9.953a.927.927,0,0,0-.269.817l.749,4.143a.909.909,0,0,1-.379.909.925.925,0,0,1-.985.067l-3.73-1.945a.941.941,0,0,0-.421-.11H8.142a.677.677,0,0,0-.227.076l-3.73,1.954a.985.985,0,0,1-.6.093.936.936,0,0,1-.749-1.07l.749-4.143a.942.942,0,0,0-.269-.824L.277,6.972A.909.909,0,0,1,.05,6.021.945.945,0,0,1,.8,5.389l4.185-.607a.936.936,0,0,0,.742-.513L7.569.488A.891.891,0,0,1,7.738.261L7.813.2A.586.586,0,0,1,7.949.093L8.041.059,8.184,0h.355a.942.942,0,0,1,.741.505l1.869,3.764a.934.934,0,0,0,.7.513l4.185.607a.955.955,0,0,1,.766.632.914.914,0,0,1-.244.951Z" transform="translate(0)" fill="#f9d729" fill-rule="evenodd"/>
</svg>
