<svg id="i_Pricetable" xmlns="http://www.w3.org/2000/svg" width="22" height="22" viewBox="0 0 22 22">
  <path id="Fill-71" d="M15.736,12.1a.768.768,0,0,1,.767.767v3.309a.767.767,0,0,1-1.535,0V12.871a.768.768,0,0,1,.767-.767Zm-4.7-7.07a.768.768,0,0,1,.767.767V16.179a.767.767,0,1,1-1.535,0V5.8a.768.768,0,0,1,.767-.767ZM6.263,8.391a.768.768,0,0,1,.767.767v7.02a.767.767,0,0,1-1.535,0V9.161a.768.768,0,0,1,.764-.771Zm9.532-6.856H6.205c-2.836,0-4.67,1.944-4.67,4.947v9.035c0,3,1.834,4.947,4.67,4.947h9.59c2.837,0,4.67-1.944,4.67-4.947V6.482c0-3-1.833-4.947-4.67-4.947Zm0-1.535C19.506,0,22,2.605,22,6.482v9.035C22,19.395,19.506,22,15.795,22H6.205C2.494,22,0,19.395,0,15.518V6.482C0,2.605,2.494,0,6.205,0Z" fill="#696972" fill-rule="evenodd"/>
</svg>
