<svg xmlns="http://www.w3.org/2000/svg" width="16.4" height="29.499" viewBox="0 0 16.4 29.499">
  <g id="Group_77" data-name="Group 77" transform="translate(-5040.009 820.248)">
    <path id="Path_50" data-name="Path 50" d="M300.435,203.861a.834.834,0,1,1-.834-.835.834.834,0,0,1,.834.835" transform="translate(4745.567 -1013.161)" fill="#696972"/>
    <path id="Path_51" data-name="Path 51" d="M375.7,203.861a.834.834,0,1,1-.835-.835.835.835,0,0,1,.835.835" transform="translate(4674.704 -1013.161)" fill="#696972"/>
    <path id="Path_52" data-name="Path 52" d="M323.706,261.828a.415.415,0,0,0-.569-.128,2.3,2.3,0,0,1-1.129.265,2.525,2.525,0,0,1-1.174-.271.413.413,0,0,0-.427.708,3.3,3.3,0,0,0,1.6.389,3.015,3.015,0,0,0,1.576-.4A.412.412,0,0,0,323.706,261.828Z" transform="translate(4725.38 -1068.339)" fill="#696972"/>
    <path id="Path_53" data-name="Path 53" d="M242.238,116.652a7.932,7.932,0,0,0-15.089-1.528c-.8,5.486.989,12.343.438,15.057a24.511,24.511,0,0,0-.481,4.906h1.859c0-6.866,2.714-11.48,5.248-11.48s5.248,4.613,5.248,11.48h1.86a25.182,25.182,0,0,0-.284-3.8c-.531-4.657.8-10.018.881-10.6,0,0,0-.008,0-.008h0a31.535,31.535,0,0,0,.319-4.023Zm-8.025,5.1A5.806,5.806,0,0,1,228.806,118a12,12,0,0,1,6.018-6.529c2.659,1.788,4.2,3.237,5.074,5.57a5.819,5.819,0,0,1-5.684,4.71Z" transform="translate(4813.187 -925.836)" fill="#696972"/>
    <path id="Path_54" data-name="Path 54" d="M240.291,31.747c-.848-.708-2.3-.31-3.7.927a7.935,7.935,0,0,0-4.712-.377,9.6,9.6,0,0,0-1.089.255.892.892,0,0,1-.184.008c-1.652-1.977-3.607-2.778-4.65-1.908a4.42,4.42,0,0,0-1.04,3,5.277,5.277,0,0,0,.15,1.467,3.664,3.664,0,0,0,.529,1.2,3.071,3.071,0,0,0,.212.265,3.3,3.3,0,0,0,.232.25c.335-.322.672-.643,1.034-.935a8.37,8.37,0,0,1,1.157-.783,8.645,8.645,0,0,1,1.287-.59,7.97,7.97,0,0,1,1.387-.365,13.717,13.717,0,0,1,1.467-.148,8.336,8.336,0,0,1,3.487.623,8.611,8.611,0,0,1,2.928,1.928,10.053,10.053,0,0,1,1.252,1.53c.1.154.256.011.341-.073a3.021,3.021,0,0,0,.336-.371,3.118,3.118,0,0,0,.457-1.064,4.917,4.917,0,0,0,.119-.759c.123-1.43-.258-3.457-1-4.077ZM226.5,35.886a3.5,3.5,0,0,1-.6-2.206,3.7,3.7,0,0,1,.688-2.272c.47-.393,1.816.162,3.074,1.565a6.869,6.869,0,0,0-3.159,2.913Zm13.809-.146a2.667,2.667,0,0,1-.425,1.369A6.733,6.733,0,0,0,237.5,33.2c.944-.75,1.807-1,2.164-.7a5.268,5.268,0,0,1,.65,3.237Z" transform="translate(4815.095 -850.551)" fill="#696972"/>
  </g>
</svg>
