<svg xmlns="http://www.w3.org/2000/svg" width="26" height="26" viewBox="0 0 26 26">
  <path id="Fill-356" d="M288.52,415.842a1.756,1.756,0,0,0-.79.189,1.628,1.628,0,0,0-.7.78,8.456,8.456,0,0,0-.226.91,20.093,20.093,0,0,0-.212,3.282,23.122,23.122,0,0,0,.188,3.173,7.065,7.065,0,0,0,.3,1.141,1.58,1.58,0,0,0,1.392.853h.051a4.341,4.341,0,0,0,1.17-.351,19.159,19.159,0,0,0,5.006-3.411l.075-.075a5.156,5.156,0,0,0,.351-.4,1.512,1.512,0,0,0,.3-.91,1.585,1.585,0,0,0-.326-.979c-.051-.051-.238-.26-.415-.439a19.156,19.156,0,0,0-5.123-3.472,4.277,4.277,0,0,0-1.041-.289M290,408a13,13,0,1,1-13,13.008A13,13,0,0,1,290,408" transform="translate(-277.001 -408.003)" fill="#d22f27" fill-rule="evenodd"/>
</svg>
