<svg id="Star-Bold" xmlns="http://www.w3.org/2000/svg" width="27.371" height="26" viewBox="0 0 27.371 26">
  <path id="Fill-374" d="M21.783,16.173a1.506,1.506,0,0,0-.437,1.327l1.216,6.732a1.478,1.478,0,0,1-.616,1.478,1.5,1.5,0,0,1-1.6.109l-6.06-3.161a1.529,1.529,0,0,0-.684-.179H13.23a1.1,1.1,0,0,0-.369.123L6.8,25.779a1.6,1.6,0,0,1-.972.151A1.521,1.521,0,0,1,4.61,24.19l1.218-6.732a1.531,1.531,0,0,0-.437-1.34L.45,11.33A1.476,1.476,0,0,1,.082,9.783,1.536,1.536,0,0,1,1.3,8.757l6.8-.987A1.522,1.522,0,0,0,9.3,6.937l3-6.144a1.447,1.447,0,0,1,.274-.369l.123-.1a.953.953,0,0,1,.22-.178L13.066.1,13.3,0h.576a1.531,1.531,0,0,1,1.2.821l3.036,6.116a1.518,1.518,0,0,0,1.136.833l6.8.987A1.551,1.551,0,0,1,27.3,9.783a1.486,1.486,0,0,1-.4,1.546Z" transform="translate(0)" fill="#d22f27" fill-rule="evenodd"/>
</svg>
