<svg xmlns="http://www.w3.org/2000/svg" width="35.748" height="26" viewBox="0 0 35.748 26">
  <path id="Fill-205" d="M96.672,374.15a5.716,5.716,0,0,1,1.152.119.221.221,0,0,1,.133.081.171.171,0,0,1-.026.179,9.493,9.493,0,0,0-.137,10.743.256.256,0,0,1-.07.356.272.272,0,0,1-.1.041,5.326,5.326,0,0,1-.786.076,5.708,5.708,0,0,1-5.726-4.259,5.806,5.806,0,0,1,5.564-7.335Zm18.406,0a5.812,5.812,0,0,1,5.566,7.335,5.708,5.708,0,0,1-5.728,4.261,5.558,5.558,0,0,1-.786-.076.257.257,0,0,1-.215-.292.263.263,0,0,1,.041-.1,9.492,9.492,0,0,0-.135-10.746.164.164,0,0,1-.026-.179.209.209,0,0,1,.133-.081,5.7,5.7,0,0,1,1.15-.117ZM105.793,373a6.835,6.835,0,0,1,6.84,6.83v.049a6.841,6.841,0,1,1-6.89-6.879Zm-9.149,15h.4a.062.062,0,0,1,.05.041.077.077,0,0,1-.046.078,7.233,7.233,0,0,0-4.316,7.119.294.294,0,0,1-.249.333.238.238,0,0,1-.076,0c-.938-.135-3.347-.65-4.1-2.275a3.117,3.117,0,0,1,0-2.714,4.481,4.481,0,0,1,3.461-2.112,25.39,25.39,0,0,1,5.271-.46Zm18.063,0a25.263,25.263,0,0,1,5.27.461,4.484,4.484,0,0,1,3.463,2.112,3.128,3.128,0,0,1,0,2.714c-.747,1.625-3.159,2.143-4.1,2.275a.3.3,0,0,1-.327-.258.382.382,0,0,1,0-.075,7.231,7.231,0,0,0-4.318-7.114.074.074,0,0,1-.047-.076.06.06,0,0,1,.054-.039Zm-8.915,2.13c5.575,0,10.337.884,10.337,4.422S111.4,399,105.793,399c-5.575,0-10.337-.884-10.337-4.42s4.732-4.452,10.337-4.452Z" transform="translate(-88.002 -373.003)" fill="#d22f27" fill-rule="evenodd"/>
</svg>
