<svg xmlns="http://www.w3.org/2000/svg" width="26.001" height="26" viewBox="0 0 26.001 26">
  <path id="Fill-298" d="M670.728,451.951a2.053,2.053,0,0,0-2.9-.005l-.005.005-.87.883a.345.345,0,0,0,0,.481l.072.07.32.317.65.65.78.78c.164.165.273.274.281.286a.878.878,0,0,1,.234.6.857.857,0,0,1-.857.857.816.816,0,0,1-.572-.234l-2.166-2.154a.283.283,0,0,0-.39,0l-6.195,6.194a2.338,2.338,0,0,0-.688,1.611l-.078,3.078a.607.607,0,0,0,.169.442.618.618,0,0,0,.442.182H662a2.4,2.4,0,0,0,1.676-.688l8.735-8.771a2.063,2.063,0,0,0,0-2.9Zm.338-5.934a6.923,6.923,0,0,1,5.1,1.807,7,7,0,0,1,1.82,5.117v12.129a6.291,6.291,0,0,1-6.925,6.92H658.937a6.289,6.289,0,0,1-6.922-6.921V452.939a6.291,6.291,0,0,1,6.922-6.922Z" transform="translate(-652 -446.002)" fill="#d22f27" fill-rule="evenodd"/>
</svg>
