<svg id="noun-like-3775512" xmlns="http://www.w3.org/2000/svg" width="18.923" height="17.647" viewBox="0 0 18.923 17.647">
  <path id="Path_42" data-name="Path 42" d="M239.489,41.006H235.17a.653.653,0,0,1-.631-.7l.189-2.526a2.187,2.187,0,0,0-1.567-2.379,2.283,2.283,0,0,0-2.377.93l-3.28,4.342V51.735l7.476,1.22a4.315,4.315,0,0,0,3.614-1.262,4.907,4.907,0,0,0,.872-1.156,15.96,15.96,0,0,0,1.915-7.614,1.907,1.907,0,0,0-1.892-1.917Z" transform="translate(-222.458 -35.341)" fill="#fff"/>
  <path id="Path_43" data-name="Path 43" d="M91.285,191.391l-1.892-.025a1.892,1.892,0,0,0-1.892,1.892v6.98a1.892,1.892,0,0,0,1.892,1.892h1.892Z" transform="translate(-87.5 -185.743)" fill="#fff"/>
  <path id="Path_44" data-name="Path 44" d="M239.489,41.006H235.17a.653.653,0,0,1-.631-.7l.189-2.526a2.187,2.187,0,0,0-1.567-2.379,2.283,2.283,0,0,0-2.377.93l-3.28,4.342V51.735l7.476,1.22a4.315,4.315,0,0,0,3.614-1.262,4.907,4.907,0,0,0,.872-1.156,15.96,15.96,0,0,0,1.915-7.614,1.907,1.907,0,0,0-1.892-1.917Z" transform="translate(-222.458 -35.341)" fill="#fff"/>
  <path id="Path_45" data-name="Path 45" d="M91.285,191.391l-1.892-.025a1.892,1.892,0,0,0-1.892,1.892v6.98a1.892,1.892,0,0,0,1.892,1.892h1.892Z" transform="translate(-87.5 -185.743)" fill="#fff"/>
</svg>
