<svg id="noun-like-3775512" xmlns="http://www.w3.org/2000/svg" width="18.923" height="17.647" viewBox="0 0 18.923 17.647">
  <path id="Path_42" data-name="Path 42" d="M229.4,47.324h4.319a.653.653,0,0,1,.631.7l-.189,2.526a2.187,2.187,0,0,0,1.567,2.379A2.283,2.283,0,0,0,238.1,52l3.28-4.342V36.594l-7.476-1.22a4.315,4.315,0,0,0-3.614,1.262,4.907,4.907,0,0,0-.872,1.156,15.96,15.96,0,0,0-1.915,7.614,1.907,1.907,0,0,0,1.892,1.918Z" transform="translate(-227.504 -35.341)" fill="#fff"/>
  <path id="Path_43" data-name="Path 43" d="M87.5,202.106l1.892.025a1.892,1.892,0,0,0,1.892-1.892v-6.98a1.892,1.892,0,0,0-1.892-1.892H87.5Z" transform="translate(-72.361 -190.107)" fill="#fff"/>
  <path id="Path_44" data-name="Path 44" d="M229.4,47.324h4.319a.653.653,0,0,1,.631.7l-.189,2.526a2.187,2.187,0,0,0,1.567,2.379A2.283,2.283,0,0,0,238.1,52l3.28-4.342V36.594l-7.476-1.22a4.315,4.315,0,0,0-3.614,1.262,4.907,4.907,0,0,0-.872,1.156,15.96,15.96,0,0,0-1.915,7.614,1.907,1.907,0,0,0,1.892,1.918Z" transform="translate(-227.504 -35.341)" fill="#fff"/>
  <path id="Path_45" data-name="Path 45" d="M87.5,202.106l1.892.025a1.892,1.892,0,0,0,1.892-1.892v-6.98a1.892,1.892,0,0,0-1.892-1.892H87.5Z" transform="translate(-72.361 -190.107)" fill="#fff"/>
</svg>
