<svg xmlns="http://www.w3.org/2000/svg" width="17.932" height="14.571" viewBox="0 0 17.932 14.571">
  <g id="_5296514_bird_tweet_twitter_twitter_logo_icon" data-name="5296514_bird_tweet_twitter_twitter logo_icon" transform="translate(0 -47.987)">
    <rect id="Rectangle_50" data-name="Rectangle 50" width="14.01" height="14.01" transform="translate(2.242 48.548)" fill="none"/>
    <path id="Path_46" data-name="Path 46" d="M5.639,62.558A10.4,10.4,0,0,0,16.107,52.09c0-.159,0-.318-.011-.476a7.486,7.486,0,0,0,1.836-1.9,7.345,7.345,0,0,1-2.113.579,3.692,3.692,0,0,0,1.617-2.035,7.374,7.374,0,0,1-2.336.893A3.683,3.683,0,0,0,8.831,52.5a10.45,10.45,0,0,1-7.582-3.844,3.7,3.7,0,0,0,1.139,4.911,3.652,3.652,0,0,1-1.67-.46v.047a3.691,3.691,0,0,0,2.952,3.607,3.674,3.674,0,0,1-1.661.063A3.691,3.691,0,0,0,5.445,59.38,7.384,7.384,0,0,1,.876,60.958,7.484,7.484,0,0,1,0,60.905a10.417,10.417,0,0,0,5.639,1.65" fill="#fff"/>
  </g>
</svg>
