<svg xmlns="http://www.w3.org/2000/svg" width="25.371" height="20.301" viewBox="0 0 25.371 20.301">
  <g id="Group_79" data-name="Group 79" transform="translate(-3773.206 672)">
    <path id="Path_57" data-name="Path 57" d="M127.31,112.944l-2.405,1.032a13.5,13.5,0,0,1-3.591.978l-2.405.308a1.893,1.893,0,0,0-1.6,2.35l1.614,5.909a11.516,11.516,0,0,0,5.689,7.073l2.208,1.164a1.6,1.6,0,0,0,2.12-.571l1.23-1.988a11.431,11.431,0,0,0,1.307-9.028l-1.647-6.008a1.851,1.851,0,0,0-2.515-1.219Zm-6.524,7.633a1.781,1.781,0,0,1,2.153-.253c.406.231.967.417,1.065,1.12a.425.425,0,0,1-.308.527c-.637.022-1.142.681-1.823.692a1.225,1.225,0,0,1-1.087-2.087Zm2.054,6.019h.011c2.5.494,5.008-.626,7.029-1.922-.769,3.437-4.47,4.053-7.04,1.922Zm5.876-5.788c-.593.329-1.362.033-1.922.329a.441.441,0,0,1-.538-.308c-.275-.648.11-1.1.341-1.5a1.763,1.763,0,0,1,1.977-.879,1.232,1.232,0,0,1,.143,2.361Z" transform="translate(3655.966 -784.196)" fill="#696972"/>
    <path id="Path_58" data-name="Path 58" d="M345.369,105.109c-.11-.033-.22-.066-.329-.088l-2.581-.483a13.189,13.189,0,0,1-3.383-1.131l-2.131-1.065a1.965,1.965,0,0,0-.318-.132,2.419,2.419,0,0,0-2.339.461,1.826,1.826,0,0,1,.791.813,1.267,1.267,0,0,1,1.186-.2,1.212,1.212,0,0,1,.176.077l2.131,1.065a13.826,13.826,0,0,0,3.679,1.23l2.581.483a1.041,1.041,0,0,1,.176.044,1.281,1.281,0,0,1,.813,1.637l-1.966,5.909a10.831,10.831,0,0,1-5.788,6.447l-2.142.978a1.036,1.036,0,0,1-.747.044,1,1,0,0,1-.582-.494l-.088-.165-.2.318a1.61,1.61,0,0,1-.615.571,2.165,2.165,0,0,0,1.12.846,2.132,2.132,0,0,0,1.582-.088l2.142-.978a12,12,0,0,0,6.4-7.128l1.966-5.909a2.426,2.426,0,0,0-1.537-3.064Z" transform="translate(3451.548 -774.086)" fill="#696972"/>
    <path id="Path_59" data-name="Path 59" d="M385.043,220.558c.308-.637-.055-1.1-.264-1.516a1.787,1.787,0,0,0-.7-.769l.351,1.307a12.49,12.49,0,0,1,.275,1.274.466.466,0,0,0,.341-.3Z" transform="translate(3403.966 -883.814)" fill="#696972"/>
    <path id="Path_60" data-name="Path 60" d="M441.062,251.729c.637.066,1.109.736,1.79.791a1.227,1.227,0,0,0,1.2-2.032,1.8,1.8,0,0,0-2.142-.362c-.417.209-.988.362-1.12,1.065A.431.431,0,0,0,441.062,251.729Z" transform="translate(3350.429 -913.7)" fill="#696972"/>
    <path id="Path_61" data-name="Path 61" d="M391.6,347.467a4.27,4.27,0,0,0-2.823-2.186,5.031,5.031,0,0,1-.165.582,6.383,6.383,0,0,1,2.965,1.6Z" transform="translate(3399.686 -1003.759)" fill="#696972"/>
  </g>
</svg>
