<svg xmlns="http://www.w3.org/2000/svg" width="20" height="20" viewBox="0 0 20 20">
  <path id="Fill-248" d="M618.531,414.247a.774.774,0,0,0-1.06,0l-3.75,3.77a.755.755,0,0,0,0,1.06.767.767,0,0,0,1.07,0l2.46-2.48v6.35a.75.75,0,0,0,1.5,0V416.6l2.47,2.48a.769.769,0,0,0,.53.22.79.79,0,0,0,.53-.22.755.755,0,0,0,0-1.06Zm3.81-5.38c3.389,0,5.66,2.38,5.66,5.92v8.17c0,3.53-2.271,5.91-5.66,5.91h-8.67c-3.39,0-5.67-2.38-5.67-5.91v-8.17c0-3.54,2.28-5.92,5.67-5.92Z" transform="translate(-608.001 -408.867)" fill="#fff" fill-rule="evenodd"/>
</svg>
