<svg xmlns="http://www.w3.org/2000/svg" width="25.371" height="21.601" viewBox="0 0 25.371 21.601">
  <path id="noun-horror-2972512" d="M131.279,63.149c.529-3.128,1.081-7.149,7.4-7.149s6.869,3.575,7.4,7.149q.477,3.23,1.818,13.029a.446.446,0,0,1-.44.469.53.53,0,0,1-.5-.218l-.876-1.359a.581.581,0,0,0-.717-.179.528.528,0,0,0-.14.093l-2.631,2.468a.6.6,0,0,1-.746.033.463.463,0,0,1-.039-.033l-2.738-2.568a.6.6,0,0,0-.746-.033c-.013.01-.026.021-.039.033l-2.738,2.568a.6.6,0,0,1-.746.033.457.457,0,0,1-.038-.033l-2.631-2.468a.6.6,0,0,0-.746-.033.466.466,0,0,0-.11.118L130.4,76.43a.557.557,0,0,1-.687.171.415.415,0,0,1-.261-.423q1.349-10.19,1.828-13.028Zm4.756-1.787A1.478,1.478,0,0,0,134.45,62.7V64.49a1.608,1.608,0,0,0,3.17,0V62.7A1.478,1.478,0,0,0,136.036,61.362Zm5.284,0a1.478,1.478,0,0,0-1.585,1.341V64.49a1.608,1.608,0,0,0,3.17,0V62.7A1.478,1.478,0,0,0,141.32,61.362Zm-2.642,10.724a2.266,2.266,0,1,0-2.642-2.234A2.464,2.464,0,0,0,138.677,72.086Zm-9.189-3.848a6.866,6.866,0,0,1-2.429-1.675c-1.836-1.849-1.057-4.315.528-3.082a5.712,5.712,0,0,0,2.426,1.112q-.222,1.477-.525,3.645Zm17.83-3.639a5.713,5.713,0,0,0,2.455-1.117c1.585-1.233,2.364,1.233.528,3.082a6.823,6.823,0,0,1-2.468,1.689q-.3-2.136-.515-3.654Z" transform="translate(-125.995 -56)" fill="#696972" fill-rule="evenodd"/>
</svg>
