<svg xmlns="http://www.w3.org/2000/svg" width="20.272" height="19.471" viewBox="0 0 20.272 19.471">
  <path id="noun-ramen-4413148" d="M141.819,60.737a3.275,3.275,0,0,1-.557-.826,3.389,3.389,0,0,1-.044-1.049,2.491,2.491,0,0,0-2.286-3.134,1.872,1.872,0,0,1-1.595-1.161,3.189,3.189,0,0,0-1.573-1.5,3.134,3.134,0,0,0-2.1.283,2,2,0,0,1-2.067,0,3.15,3.15,0,0,0-2.1-.283,3.187,3.187,0,0,0-1.571,1.5,1.885,1.885,0,0,1-1.6,1.162,2.49,2.49,0,0,0-2.286,3.134A3.376,3.376,0,0,1,124,59.912a3.266,3.266,0,0,1-.557.827,2.542,2.542,0,0,0,0,3.962,3.29,3.29,0,0,1,.557.826,3.388,3.388,0,0,1,.044,1.049,2.491,2.491,0,0,0,2.286,3.134,3.343,3.343,0,0,1,.971.359,3.308,3.308,0,0,1,.624.8,3.189,3.189,0,0,0,1.573,1.5,1.918,1.918,0,0,0,.592.091,4.317,4.317,0,0,0,1.508-.374,2,2,0,0,1,2.067,0,3.139,3.139,0,0,0,2.1.283,3.187,3.187,0,0,0,1.571-1.5,1.881,1.881,0,0,1,1.6-1.162,2.49,2.49,0,0,0,2.286-3.134,3.379,3.379,0,0,1,.044-1.048,3.277,3.277,0,0,1,.557-.827,2.546,2.546,0,0,0,0-3.963Zm-5.43,5.158a5.7,5.7,0,0,1-4.711,2.313,6.584,6.584,0,0,1-2.455-.477.78.78,0,0,1,.58-1.447A4.452,4.452,0,0,0,135.112,65a3.82,3.82,0,0,0,.234-4.021,3.58,3.58,0,0,0-2.9-1.77,2.964,2.964,0,0,0-2.849,2.2,2.036,2.036,0,0,0,.981,2.061,1.576,1.576,0,0,0,1.862-.352,1.146,1.146,0,0,0-.034-.821.78.78,0,0,1,1.464-.54,2.589,2.589,0,0,1-.033,2.054,3.06,3.06,0,0,1-3.89,1.085,3.548,3.548,0,0,1-1.9-3.689c.278-2.112,2.47-3.488,4.341-3.555h.156A5.112,5.112,0,0,1,136.7,60.2a5.4,5.4,0,0,1-.307,5.7Z" transform="translate(-122.495 -52.995)" fill="#696972"/>
</svg>
