<svg xmlns="http://www.w3.org/2000/svg" width="22.181" height="21.42" viewBox="0 0 22.181 21.42">
  <path id="Path_62" data-name="Path 62" d="M140.155,57.386a1.1,1.1,0,0,0-1.259.225,3.728,3.728,0,0,0-.409.385c-.341.348-.665.716-1.022,1.048A9.242,9.242,0,0,1,134.53,60.9a37.442,37.442,0,0,1-6.474,1.43,9.746,9.746,0,0,0-2.517.816c-.15.076-.234.133-.04.251a19.911,19.911,0,0,0,3.976.6.56.56,0,0,1,.6.478,13.256,13.256,0,0,1,.232,2.471c.008.542-.068,1.839-.068,1.839.068-.016.17-.051.3-.079a2.559,2.559,0,0,1,2.207.779,2.2,2.2,0,0,1,.309,2.128c-.027.065-.2.283-.132.339.126.106.508-.218.619-.287a10.356,10.356,0,0,0,.963-.651c.5-.4,1-.7,1.617-.036-.071-.4-.174-5.367-.147-6.09a2.412,2.412,0,0,1,.179-1.028,2.771,2.771,0,0,1,.8-1.017q.6-.527,1.193-1.056a11.381,11.381,0,0,0,1.887-2.162,2.765,2.765,0,0,0,.562-1.219,1.262,1.262,0,0,0-.433-1.018Zm-6.418,14.572a4.406,4.406,0,0,1-1.261.662c-1.682.536-3.456-.111-4.982-.811a.592.592,0,0,0-.538-.035c-.18.1-.119.315-.1.483a1.088,1.088,0,0,0,.325.65,6.991,6.991,0,0,0,2.2,1.5c.386.164.262.849.265,1.172,0,.729.022,1.46.043,2.191a28.1,28.1,0,0,0,3.782-.185c.006-.95.063-2.319.045-3.268-.009-.469.123-.444.441-.651A7.16,7.16,0,0,0,135,72.895a1.84,1.84,0,0,0,.719-1.534c-.081-1.051-1.68.374-1.978.6Zm-8.85-9.668a2.045,2.045,0,1,0-2.046-2.045A2.045,2.045,0,0,0,124.887,62.291Zm6.85-1.382a2.21,2.21,0,0,0,2.21-2.21,2.479,2.479,0,0,0-2.384-2.339,2.08,2.08,0,0,0-2.035,2.339,2.309,2.309,0,0,0,2.209,2.21Zm-.624,11.371a1.578,1.578,0,0,0,1.518-1.551,1.535,1.535,0,0,0-1.518-1.551,1.424,1.424,0,0,0-1.619,1.4A1.538,1.538,0,0,0,131.113,72.279Zm-4.538-.622a.453.453,0,0,1,.5-.333c-.928-1.413-1.292-4.627-.932-4.85s2.444.049,3.368-.571a1.062,1.062,0,0,0,.246-1.194c-.187-.33-.549-.346-.892-.372a14.9,14.9,0,0,1-1.594-.224,10.667,10.667,0,0,1-4.54-1.739,7.026,7.026,0,0,1-2.179-3.13,19.474,19.474,0,0,0-.923-2.049.619.619,0,0,0-1.135.141,1.866,1.866,0,0,0-.077.78,10.956,10.956,0,0,0,.23,1.683,11.461,11.461,0,0,0,.994,2.767,14.456,14.456,0,0,1,1.1,2.024,25.167,25.167,0,0,1,.7,9.811c-.057.512,3.029,1.868,3.654,2.154.183.084,1.343.5,1.347.562a10.057,10.057,0,0,0,2.507-2.434c-.539-.4-1.12-.731-1.648-1.157a1.877,1.877,0,0,1-.73-1.87Z" transform="translate(-118.41 -56.359)" fill="#696972" fill-rule="evenodd"/>
</svg>
