<svg xmlns="http://www.w3.org/2000/svg" width="24.384" height="24.36" viewBox="0 0 24.384 24.36">
  <path id="Path_64" data-name="Path 64" d="M98.929,13.411a.419.419,0,0,0-.577.138l-3.122,5.073a2.418,2.418,0,0,1-1.364,1.05L90.1,20.757a2.834,2.834,0,0,0-.289-.492l3.478-2.548a2.9,2.9,0,0,0,1.222-2.363V8.235a.42.42,0,1,0-.84,0v7.12a2.064,2.064,0,0,1-.873,1.682l-3.575,2.619,0,0a3.474,3.474,0,0,0-.623-.4,6.287,6.287,0,0,0,2.669-5.494c0-3.283-1.947-5.954-4.34-5.954s-4.34,2.671-4.34,5.954a6.287,6.287,0,0,0,2.669,5.494,3.493,3.493,0,0,0-.61.386l-3.572-2.616a2.061,2.061,0,0,1-.867-1.678V8.235a.42.42,0,1,0-.84,0v7.12a2.9,2.9,0,0,0,1.216,2.36l3.467,2.54a2.779,2.779,0,0,0-.3.5l-3.741-1.078a2.424,2.424,0,0,1-1.368-1.052l-3.121-5.073a.42.42,0,1,0-.716.44l3.122,5.073a3.263,3.263,0,0,0,1.846,1.418l3.754,1.081a2.11,2.11,0,0,0,.01.677l-3.56,1.383a1.963,1.963,0,0,0-1.159,1.631l-.385,4.624a.42.42,0,0,0,.384.453l.035,0a.42.42,0,0,0,.418-.385l.385-4.624A1.117,1.117,0,0,1,80.3,24.4l3.5-1.362a2.919,2.919,0,0,0,.48.673L83,24.926l-.033.036a3.182,3.182,0,0,0-.351,3.58l1.862,3.414a.42.42,0,0,0,.738-.4L83.356,28.14a2.346,2.346,0,0,1,.244-2.622l1.343-1.275c.018.011.034.025.053.036a1.6,1.6,0,0,0-.105.56,1.644,1.644,0,0,0,.311.947,1.95,1.95,0,0,0-.362,1.14,1.907,1.907,0,0,0,.529,1.347.42.42,0,0,0,.594-.594,1.064,1.064,0,0,1-.283-.753,1.144,1.144,0,0,1,.149-.573,2.224,2.224,0,0,0,2.194,0,1.144,1.144,0,0,1,.149.573,1.064,1.064,0,0,1-.283.753.42.42,0,0,0,.594.594,1.907,1.907,0,0,0,.529-1.347,1.95,1.95,0,0,0-.362-1.14,1.644,1.644,0,0,0,.311-.947,1.59,1.59,0,0,0-.105-.56c.024-.014.045-.031.068-.045l1.353,1.285a2.347,2.347,0,0,1,.244,2.622l-1.862,3.414a.42.42,0,0,0,.738.4l1.862-3.414a3.182,3.182,0,0,0-.351-3.58L89.574,23.7a2.923,2.923,0,0,0,.473-.669l3.505,1.362a1.122,1.122,0,0,1,.662.933l.385,4.624a.42.42,0,0,0,.418.385l.035,0a.42.42,0,0,0,.384-.453l-.385-4.624a1.969,1.969,0,0,0-1.177-1.638l-3.564-1.385a2.612,2.612,0,0,0,.03-.389,2.579,2.579,0,0,0-.021-.272L94.1,20.478a3.263,3.263,0,0,0,1.842-1.416l3.121-5.073a.42.42,0,0,0-.138-.578ZM86.5,9.569h.84a.42.42,0,1,1,0,.84H86.5a.42.42,0,1,1,0-.84Zm-1.26,1.68H88.6a.42.42,0,1,1,0,.84h-3.36a.42.42,0,0,1,0-.84Zm-.84,2.52a.42.42,0,1,1,0-.84h5.04a.42.42,0,1,1,0,.84Z" transform="translate(-74.745 -7.815)" fill="#696972" fill-rule="evenodd"/>
</svg>
