<svg xmlns="http://www.w3.org/2000/svg" width="16.889" height="16" viewBox="0 0 16.889 16">
  <g id="i_star" transform="translate(-18.831 1)">
    <path id="Fill-167" d="M4.291,16a1.726,1.726,0,0,1-1.017-.334A1.682,1.682,0,0,1,2.6,14.011l.606-3.468a.394.394,0,0,0-.117-.351L.523,7.734A1.676,1.676,0,0,1,.082,6,1.7,1.7,0,0,1,1.476,4.834l3.539-.509A.413.413,0,0,0,5.328,4.1L6.91.944a1.724,1.724,0,0,1,3.075,0L11.568,4.1a.411.411,0,0,0,.313.223l3.541.509A1.7,1.7,0,0,1,16.807,6a1.674,1.674,0,0,1-.442,1.735l-2.56,2.456a.391.391,0,0,0-.116.346l.606,3.469a1.682,1.682,0,0,1-.672,1.656A1.71,1.71,0,0,1,11.8,15.8L8.641,14.161a.432.432,0,0,0-.4,0L5.086,15.8a1.719,1.719,0,0,1-.8.2M8.448,1.3a.408.408,0,0,0-.376.227L6.49,4.682a1.714,1.714,0,0,1-1.29.925l-3.541.509a.4.4,0,0,0-.338.279.383.383,0,0,0,.1.4L3.987,9.254a1.686,1.686,0,0,1,.5,1.509l-.606,3.468a.385.385,0,0,0,.159.387.41.41,0,0,0,.448.034L7.65,13.013a1.737,1.737,0,0,1,1.59,0L12.4,14.651a.418.418,0,0,0,.449-.033.385.385,0,0,0,.159-.387l-.606-3.468a1.687,1.687,0,0,1,.5-1.509L15.468,6.8a.379.379,0,0,0,.1-.4.4.4,0,0,0-.337-.279L11.7,5.608a1.713,1.713,0,0,1-1.29-.926L8.823,1.525A.406.406,0,0,0,8.448,1.3" transform="translate(18.831 -1)" fill="#f9d729" fill-rule="evenodd"/>
  </g>
</svg>
